<?xml version="1.0" encoding="utf-8"?>
<!-- Generator: Adobe Illustrator 15.1.0, SVG Export Plug-In . SVG Version: 6.00 Build 0)  -->
<!DOCTYPE svg PUBLIC "-//W3C//DTD SVG 1.1//EN" "http://www.w3.org/Graphics/SVG/1.1/DTD/svg11.dtd">
<svg version="1.1" id="Layer_1" xmlns="http://www.w3.org/2000/svg" xmlns:xlink="http://www.w3.org/1999/xlink" x="0px" y="0px"
	 width="80px" height="240px" viewBox="0 0 80 240" enable-background="new 0 0 80 240" xml:space="preserve">
<rect x="16" y="15" fill="#FFFFFF" width="34" height="50"/>
<g>
	<polygon fill="#CCCCCC" points="16,65 8,71 8,21 16,15 	"/>
	<rect x="22" y="25" fill="#CCCCCC" width="19" height="3"/>
	<rect x="22" y="32" fill="#CCCCCC" width="22" height="3"/>
	<rect x="22" y="39" fill="#CCCCCC" width="20" height="3"/>
	<rect x="22" y="46" fill="#CCCCCC" width="19" height="3"/>
	<rect x="22" y="53" fill="#CCCCCC" width="22" height="3"/>
</g>
<polygon fill="#FFFFFF" points="8,71 0,65 0,15 8,21 "/>
<path fill="#FFFFFF" d="M22.354,86c-6.627,0-12,5.373-12,12c0,3.134,1.211,5.978,3.178,8.115L5,114.646l0.707,0.707l8.532-8.532
	c2.137,1.967,4.981,3.178,8.115,3.178c6.627,0,12-5.373,12-12S28.981,86,22.354,86z M22.354,109c-6.065,0-11-4.935-11-11
	s4.935-11,11-11s11,4.935,11,11S28.419,109,22.354,109z"/>
<polygon fill="#FFFFFF" points="35,139 21,139 21,125 20,125 20,139 6,139 6,140 20,140 20,154 21,154 21,140 35,140 "/>
<path fill="#FFFFFF" d="M33,171.805c-0.883,0.393-1.832,0.656-2.828,0.775c1.017-0.609,1.798-1.574,2.165-2.724
	c-0.951,0.564-2.005,0.974-3.127,1.194c-0.898-0.957-2.178-1.555-3.594-1.555c-2.719,0-4.924,2.205-4.924,4.924
	c0,0.386,0.043,0.762,0.128,1.122c-4.093-0.205-7.722-2.165-10.149-5.145c-0.424,0.728-0.667,1.573-0.667,2.476
	c0,1.708,0.869,3.215,2.19,4.099c-0.807-0.026-1.566-0.247-2.229-0.616c-0.001,0.021-0.001,0.041-0.001,0.062
	c0,2.385,1.697,4.375,3.949,4.828c-0.412,0.111-0.848,0.172-1.297,0.172c-0.317,0-0.625-0.031-0.926-0.088
	c0.627,1.956,2.445,3.379,4.6,3.42c-1.686,1.32-3.809,2.107-6.115,2.107c-0.397,0-0.789-0.023-1.175-0.069
	c2.179,1.397,4.767,2.212,7.548,2.212c9.057,0,14.01-7.502,14.01-14.009c0-0.214-0.005-0.427-0.015-0.638
	C31.505,173.66,32.34,172.793,33,171.805z"/>
<polygon fill="#FFFFFF" points="10,205 16,213 4,213 "/>
</svg>
