<?xml version="1.0" encoding="utf-8"?>
<!-- Generator: Adobe Illustrator 16.0.0, SVG Export Plug-In . SVG Version: 6.00 Build 0)  -->
<!DOCTYPE svg PUBLIC "-//W3C//DTD SVG 1.1//EN" "http://www.w3.org/Graphics/SVG/1.1/DTD/svg11.dtd">
<svg version="1.1" id="Layer_1" xmlns="http://www.w3.org/2000/svg" xmlns:xlink="http://www.w3.org/1999/xlink" x="0px" y="0px"
	 width="80px" height="377.574px" viewBox="0 0 80 377.574" enable-background="new 0 0 80 377.574" xml:space="preserve">
<rect x="16" y="15" fill="#FFFFFF" width="34" height="50"/>
<g>
	<polygon fill="#CCCCCC" points="16,65 8,71 8,21 16,15 	"/>
	<rect x="22" y="25" fill="#CCCCCC" width="19" height="3"/>
	<rect x="22" y="32" fill="#CCCCCC" width="22" height="3"/>
	<rect x="22" y="39" fill="#CCCCCC" width="20" height="3"/>
	<rect x="22" y="46" fill="#CCCCCC" width="19" height="3"/>
	<rect x="22" y="53" fill="#CCCCCC" width="22" height="3"/>
</g>
<polygon fill="#FFFFFF" points="8,71 0,65 0,15 8,21 "/>
<path fill="#FFFFFF" d="M22.354,86c-6.627,0-12,5.373-12,12c0,3.134,1.211,5.979,3.178,8.115L5,114.646l0.707,0.707l8.532-8.532
	c2.137,1.967,4.981,3.178,8.115,3.178c6.627,0,12-5.373,12-12S28.981,86,22.354,86z M22.354,109c-6.065,0-11-4.935-11-11
	c0-6.064,4.935-11,11-11s11,4.936,11,11C33.354,104.065,28.419,109,22.354,109z"/>
<polygon fill="#FFFFFF" points="35,139 21,139 21,125 20,125 20,139 6,139 6,140 20,140 20,154 21,154 21,140 35,140 "/>
<path fill="#FFFFFF" d="M33,171.805c-0.883,0.394-1.832,0.655-2.828,0.774c1.017-0.608,1.798-1.574,2.165-2.725
	c-0.951,0.563-2.005,0.975-3.127,1.193c-0.898-0.957-2.178-1.555-3.594-1.555c-2.719,0-4.924,2.205-4.924,4.924
	c0,0.386,0.043,0.764,0.128,1.122c-4.093-0.205-7.722-2.165-10.149-5.145c-0.424,0.728-0.667,1.571-0.667,2.476
	c0,1.708,0.869,3.215,2.19,4.099c-0.807-0.024-1.566-0.245-2.229-0.614c-0.001,0.021-0.001,0.041-0.001,0.062
	c0,2.385,1.697,4.375,3.949,4.828c-0.412,0.11-0.848,0.172-1.297,0.172c-0.317,0-0.625-0.031-0.926-0.088
	c0.627,1.956,2.445,3.379,4.6,3.42c-1.686,1.319-3.809,2.106-6.115,2.106c-0.397,0-0.789-0.022-1.175-0.068
	c2.179,1.396,4.767,2.212,7.548,2.212c9.057,0,14.01-7.502,14.01-14.009c0-0.215-0.005-0.428-0.015-0.639
	C31.505,173.66,32.34,172.793,33,171.805z"/>
<polygon fill="#FFFFFF" points="10,205 16,213 4,213 "/>
<path fill="#CCCCCC" d="M25.569,228.514c-12.09,0-21.892,9.799-21.892,21.892c0,12.091,9.802,21.894,21.892,21.894
	c12.092,0,21.892-9.803,21.892-21.894C47.461,238.312,37.661,228.514,25.569,228.514z M38.57,263.406
	c-1.689,1.688-3.656,3.014-5.844,3.941c-0.556,0.232-1.12,0.438-1.694,0.617v-3.279c0-1.727-0.591-2.992-1.774-3.808
	c0.743-0.067,1.421-0.172,2.042-0.3c0.621-0.128,1.275-0.312,1.967-0.557c0.692-0.239,1.312-0.528,1.86-0.865
	c0.548-0.334,1.075-0.771,1.582-1.305c0.505-0.535,0.93-1.141,1.272-1.816c0.342-0.678,0.612-1.488,0.812-2.438
	c0.2-0.945,0.299-1.99,0.299-3.134c0-2.21-0.719-4.091-2.159-5.644c0.658-1.713,0.585-3.568-0.211-5.58l-0.537-0.062
	c-0.369-0.043-1.037,0.113-1.999,0.471c-0.962,0.356-2.042,0.941-3.239,1.754c-1.694-0.471-3.456-0.705-5.278-0.705
	c-1.841,0-3.592,0.234-5.262,0.705c-0.753-0.514-1.47-0.938-2.146-1.272c-0.679-0.334-1.221-0.562-1.627-0.684
	c-0.406-0.12-0.783-0.195-1.133-0.226c-0.348-0.029-0.572-0.035-0.671-0.021c-0.102,0.014-0.171,0.027-0.214,0.043
	c-0.799,2.021-0.869,3.883-0.214,5.58c-1.44,1.553-2.159,3.434-2.159,5.644c0,1.142,0.099,2.187,0.299,3.134s0.47,1.76,0.812,2.438
	c0.342,0.676,0.767,1.281,1.272,1.816c0.508,0.529,1.034,0.969,1.582,1.305c0.548,0.334,1.168,0.623,1.86,0.865
	c0.689,0.24,1.347,0.429,1.967,0.557c0.623,0.126,1.302,0.229,2.042,0.3c-1.168,0.796-1.753,2.063-1.753,3.808v3.344
	c-0.645-0.189-1.283-0.418-1.908-0.688c-2.189-0.925-4.153-2.25-5.845-3.939c-1.689-1.688-3.014-3.655-3.941-5.844
	c-0.959-2.267-1.446-4.672-1.446-7.154s0.486-4.896,1.446-7.156c0.924-2.188,2.25-4.155,3.941-5.846
	c1.689-1.69,3.656-3.019,5.845-3.94c2.263-0.959,4.671-1.442,7.154-1.442c2.485,0,4.893,0.485,7.157,1.442
	c2.188,0.929,4.155,2.253,5.844,3.94c1.692,1.69,3.017,3.656,3.943,5.849c0.959,2.261,1.442,4.671,1.442,7.153
	c0,2.48-0.483,4.891-1.442,7.156C41.587,259.747,40.262,261.714,38.57,263.406z"/>
<path fill="#CCCCCC" d="M27,299c-6.543,0-12.351,3.143-16,8c3.649,4.858,9.457,8,16,8s12.351-3.142,16-8
	C39.351,302.143,33.543,299,27,299z M25,303c1.105,0,2,0.896,2,2c0,1.105-0.895,2-2,2s-2-0.895-2-2S23.895,303,25,303z
	 M35.175,311.041c-1.239,0.633-2.552,1.121-3.9,1.449C29.884,312.828,28.446,313,27,313s-2.884-0.172-4.274-0.51
	c-1.35-0.329-2.661-0.816-3.9-1.449c-1.969-1.006-3.757-2.388-5.239-4.041c1.482-1.652,3.27-3.034,5.239-4.041
	c1.01-0.516,2.069-0.936,3.159-1.251C21.362,302.652,21,303.784,21,305c0,3.314,2.686,6,6,6s6-2.686,6-6
	c0-1.216-0.362-2.348-0.983-3.292c1.09,0.315,2.148,0.735,3.159,1.251c1.969,1.006,3.757,2.389,5.239,4.041
	C38.932,308.653,37.145,310.034,35.175,311.041z M37.904,296.616C34.506,294.88,30.838,294,27,294s-7.506,0.88-10.904,2.616
	c-1.836,0.938-3.554,2.122-5.096,3.503v3.413c1.729-1.83,3.771-3.367,6.006-4.509c3.113-1.592,6.477-2.398,9.994-2.398
	s6.881,0.809,9.994,2.396c2.234,1.143,4.277,2.68,6.006,4.51v-3.412C41.458,298.738,39.74,297.555,37.904,296.616z"/>
<polygon fill="#FFFFFF" points="44,205 56,205 50,213 "/>
<path fill="#CCCCCC" d="M40.208,346.613l-16.412,16.412l-7.659-7.659l-5.471,5.471l13.129,13.13l21.882-21.883L40.208,346.613z"/>
</svg>
